<svg xmlns="http://www.w3.org/2000/svg" width="2900" height="1860" viewBox="0 0 2900 1860">
<rect width="2900" height="1860" fill="#FFFFFF"/>
<text x="1450" y="76" text-anchor="middle" font-family="DejaVu Sans" font-weight="bold" font-size="46" fill="#0F172A">Carte mentale — WaCopilote v1.48.1</text>
<text x="1450" y="118" text-anchor="middle" font-family="DejaVu Sans" font-size="23" fill="#64748B">Plateforme desktop agentique : IA multi-fournisseurs · automatisation WhatsApp · prospection B2B · pont WordPress — 37 800 l. applicatives · 290 fichiers · 2 790 l. de tests</text>
<path d="M 1672 875 C 1731 875, 1731 215, 1790 215" fill="none" stroke="#6366F1" stroke-width="5" stroke-linecap="round" opacity="0.9"/>
<path d="M 1672 875 C 1731 875, 1731 530, 1790 530" fill="none" stroke="#0EA5E9" stroke-width="5" stroke-linecap="round" opacity="0.9"/>
<path d="M 1672 875 C 1731 875, 1731 845, 1790 845" fill="none" stroke="#8B5CF6" stroke-width="5" stroke-linecap="round" opacity="0.9"/>
<path d="M 1672 875 C 1731 875, 1731 1160, 1790 1160" fill="none" stroke="#EC4899" stroke-width="5" stroke-linecap="round" opacity="0.9"/>
<path d="M 1672 875 C 1731 875, 1731 1475, 1790 1475" fill="none" stroke="#EF4444" stroke-width="5" stroke-linecap="round" opacity="0.9"/>
<path d="M 1672 875 C 1391 875, 1391 215, 1110 215" fill="none" stroke="#22C55E" stroke-width="5" stroke-linecap="round" opacity="0.9"/>
<path d="M 1672 875 C 1391 875, 1391 530, 1110 530" fill="none" stroke="#F59E0B" stroke-width="5" stroke-linecap="round" opacity="0.9"/>
<path d="M 1672 875 C 1391 875, 1391 845, 1110 845" fill="none" stroke="#14B8A6" stroke-width="5" stroke-linecap="round" opacity="0.9"/>
<path d="M 1672 875 C 1391 875, 1391 1160, 1110 1160" fill="none" stroke="#F97316" stroke-width="5" stroke-linecap="round" opacity="0.9"/>
<path d="M 1672 875 C 1391 875, 1391 1475, 1110 1475" fill="none" stroke="#334155" stroke-width="5" stroke-linecap="round" opacity="0.9"/>
<path d="M 2190 215 C 2213 215, 2213 86, 2236 86" fill="none" stroke="#6366F1" stroke-width="3" stroke-linecap="round" opacity="0.9"/>
<path d="M 2190 215 C 2213 215, 2213 129, 2236 129" fill="none" stroke="#6366F1" stroke-width="3" stroke-linecap="round" opacity="0.9"/>
<path d="M 2190 215 C 2213 215, 2213 172, 2236 172" fill="none" stroke="#6366F1" stroke-width="3" stroke-linecap="round" opacity="0.9"/>
<path d="M 2190 215 C 2213 215, 2213 215, 2236 215" fill="none" stroke="#6366F1" stroke-width="3" stroke-linecap="round" opacity="0.9"/>
<path d="M 2190 215 C 2213 215, 2213 258, 2236 258" fill="none" stroke="#6366F1" stroke-width="3" stroke-linecap="round" opacity="0.9"/>
<path d="M 2190 215 C 2213 215, 2213 301, 2236 301" fill="none" stroke="#6366F1" stroke-width="3" stroke-linecap="round" opacity="0.9"/>
<path d="M 2190 215 C 2213 215, 2213 344, 2236 344" fill="none" stroke="#6366F1" stroke-width="3" stroke-linecap="round" opacity="0.9"/>
<path d="M 2161 530 C 2184 530, 2184 423, 2207 423" fill="none" stroke="#0EA5E9" stroke-width="3" stroke-linecap="round" opacity="0.9"/>
<path d="M 2161 530 C 2184 530, 2184 466, 2207 466" fill="none" stroke="#0EA5E9" stroke-width="3" stroke-linecap="round" opacity="0.9"/>
<path d="M 2161 530 C 2184 530, 2184 509, 2207 509" fill="none" stroke="#0EA5E9" stroke-width="3" stroke-linecap="round" opacity="0.9"/>
<path d="M 2161 530 C 2184 530, 2184 552, 2207 552" fill="none" stroke="#0EA5E9" stroke-width="3" stroke-linecap="round" opacity="0.9"/>
<path d="M 2161 530 C 2184 530, 2184 595, 2207 595" fill="none" stroke="#0EA5E9" stroke-width="3" stroke-linecap="round" opacity="0.9"/>
<path d="M 2161 530 C 2184 530, 2184 638, 2207 638" fill="none" stroke="#0EA5E9" stroke-width="3" stroke-linecap="round" opacity="0.9"/>
<path d="M 2190 845 C 2213 845, 2213 716, 2236 716" fill="none" stroke="#8B5CF6" stroke-width="3" stroke-linecap="round" opacity="0.9"/>
<path d="M 2190 845 C 2213 845, 2213 759, 2236 759" fill="none" stroke="#8B5CF6" stroke-width="3" stroke-linecap="round" opacity="0.9"/>
<path d="M 2190 845 C 2213 845, 2213 802, 2236 802" fill="none" stroke="#8B5CF6" stroke-width="3" stroke-linecap="round" opacity="0.9"/>
<path d="M 2190 845 C 2213 845, 2213 845, 2236 845" fill="none" stroke="#8B5CF6" stroke-width="3" stroke-linecap="round" opacity="0.9"/>
<path d="M 2190 845 C 2213 845, 2213 888, 2236 888" fill="none" stroke="#8B5CF6" stroke-width="3" stroke-linecap="round" opacity="0.9"/>
<path d="M 2190 845 C 2213 845, 2213 931, 2236 931" fill="none" stroke="#8B5CF6" stroke-width="3" stroke-linecap="round" opacity="0.9"/>
<path d="M 2190 845 C 2213 845, 2213 974, 2236 974" fill="none" stroke="#8B5CF6" stroke-width="3" stroke-linecap="round" opacity="0.9"/>
<path d="M 2174 1160 C 2197 1160, 2197 1053, 2220 1053" fill="none" stroke="#EC4899" stroke-width="3" stroke-linecap="round" opacity="0.9"/>
<path d="M 2174 1160 C 2197 1160, 2197 1096, 2220 1096" fill="none" stroke="#EC4899" stroke-width="3" stroke-linecap="round" opacity="0.9"/>
<path d="M 2174 1160 C 2197 1160, 2197 1139, 2220 1139" fill="none" stroke="#EC4899" stroke-width="3" stroke-linecap="round" opacity="0.9"/>
<path d="M 2174 1160 C 2197 1160, 2197 1182, 2220 1182" fill="none" stroke="#EC4899" stroke-width="3" stroke-linecap="round" opacity="0.9"/>
<path d="M 2174 1160 C 2197 1160, 2197 1225, 2220 1225" fill="none" stroke="#EC4899" stroke-width="3" stroke-linecap="round" opacity="0.9"/>
<path d="M 2174 1160 C 2197 1160, 2197 1268, 2220 1268" fill="none" stroke="#EC4899" stroke-width="3" stroke-linecap="round" opacity="0.9"/>
<path d="M 2021 1475 C 2044 1475, 2044 1346, 2067 1346" fill="none" stroke="#EF4444" stroke-width="3" stroke-linecap="round" opacity="0.9"/>
<path d="M 2021 1475 C 2044 1475, 2044 1389, 2067 1389" fill="none" stroke="#EF4444" stroke-width="3" stroke-linecap="round" opacity="0.9"/>
<path d="M 2021 1475 C 2044 1475, 2044 1432, 2067 1432" fill="none" stroke="#EF4444" stroke-width="3" stroke-linecap="round" opacity="0.9"/>
<path d="M 2021 1475 C 2044 1475, 2044 1475, 2067 1475" fill="none" stroke="#EF4444" stroke-width="3" stroke-linecap="round" opacity="0.9"/>
<path d="M 2021 1475 C 2044 1475, 2044 1518, 2067 1518" fill="none" stroke="#EF4444" stroke-width="3" stroke-linecap="round" opacity="0.9"/>
<path d="M 2021 1475 C 2044 1475, 2044 1561, 2067 1561" fill="none" stroke="#EF4444" stroke-width="3" stroke-linecap="round" opacity="0.9"/>
<path d="M 2021 1475 C 2044 1475, 2044 1604, 2067 1604" fill="none" stroke="#EF4444" stroke-width="3" stroke-linecap="round" opacity="0.9"/>
<path d="M 710 215 C 687 215, 687 108, 664 108" fill="none" stroke="#22C55E" stroke-width="3" stroke-linecap="round" opacity="0.9"/>
<path d="M 710 215 C 687 215, 687 151, 664 151" fill="none" stroke="#22C55E" stroke-width="3" stroke-linecap="round" opacity="0.9"/>
<path d="M 710 215 C 687 215, 687 194, 664 194" fill="none" stroke="#22C55E" stroke-width="3" stroke-linecap="round" opacity="0.9"/>
<path d="M 710 215 C 687 215, 687 237, 664 237" fill="none" stroke="#22C55E" stroke-width="3" stroke-linecap="round" opacity="0.9"/>
<path d="M 710 215 C 687 215, 687 280, 664 280" fill="none" stroke="#22C55E" stroke-width="3" stroke-linecap="round" opacity="0.9"/>
<path d="M 710 215 C 687 215, 687 323, 664 323" fill="none" stroke="#22C55E" stroke-width="3" stroke-linecap="round" opacity="0.9"/>
<path d="M 710 530 C 687 530, 687 423, 664 423" fill="none" stroke="#F59E0B" stroke-width="3" stroke-linecap="round" opacity="0.9"/>
<path d="M 710 530 C 687 530, 687 466, 664 466" fill="none" stroke="#F59E0B" stroke-width="3" stroke-linecap="round" opacity="0.9"/>
<path d="M 710 530 C 687 530, 687 509, 664 509" fill="none" stroke="#F59E0B" stroke-width="3" stroke-linecap="round" opacity="0.9"/>
<path d="M 710 530 C 687 530, 687 552, 664 552" fill="none" stroke="#F59E0B" stroke-width="3" stroke-linecap="round" opacity="0.9"/>
<path d="M 710 530 C 687 530, 687 595, 664 595" fill="none" stroke="#F59E0B" stroke-width="3" stroke-linecap="round" opacity="0.9"/>
<path d="M 710 530 C 687 530, 687 638, 664 638" fill="none" stroke="#F59E0B" stroke-width="3" stroke-linecap="round" opacity="0.9"/>
<path d="M 744 845 C 721 845, 721 738, 698 738" fill="none" stroke="#14B8A6" stroke-width="3" stroke-linecap="round" opacity="0.9"/>
<path d="M 744 845 C 721 845, 721 781, 698 781" fill="none" stroke="#14B8A6" stroke-width="3" stroke-linecap="round" opacity="0.9"/>
<path d="M 744 845 C 721 845, 721 824, 698 824" fill="none" stroke="#14B8A6" stroke-width="3" stroke-linecap="round" opacity="0.9"/>
<path d="M 744 845 C 721 845, 721 867, 698 867" fill="none" stroke="#14B8A6" stroke-width="3" stroke-linecap="round" opacity="0.9"/>
<path d="M 744 845 C 721 845, 721 910, 698 910" fill="none" stroke="#14B8A6" stroke-width="3" stroke-linecap="round" opacity="0.9"/>
<path d="M 744 845 C 721 845, 721 953, 698 953" fill="none" stroke="#14B8A6" stroke-width="3" stroke-linecap="round" opacity="0.9"/>
<path d="M 716 1160 C 693 1160, 693 1074, 670 1074" fill="none" stroke="#F97316" stroke-width="3" stroke-linecap="round" opacity="0.9"/>
<path d="M 716 1160 C 693 1160, 693 1117, 670 1117" fill="none" stroke="#F97316" stroke-width="3" stroke-linecap="round" opacity="0.9"/>
<path d="M 716 1160 C 693 1160, 693 1160, 670 1160" fill="none" stroke="#F97316" stroke-width="3" stroke-linecap="round" opacity="0.9"/>
<path d="M 716 1160 C 693 1160, 693 1203, 670 1203" fill="none" stroke="#F97316" stroke-width="3" stroke-linecap="round" opacity="0.9"/>
<path d="M 716 1160 C 693 1160, 693 1246, 670 1246" fill="none" stroke="#F97316" stroke-width="3" stroke-linecap="round" opacity="0.9"/>
<path d="M 761 1475 C 738 1475, 738 1346, 715 1346" fill="none" stroke="#334155" stroke-width="3" stroke-linecap="round" opacity="0.9"/>
<path d="M 761 1475 C 738 1475, 738 1389, 715 1389" fill="none" stroke="#334155" stroke-width="3" stroke-linecap="round" opacity="0.9"/>
<path d="M 761 1475 C 738 1475, 738 1432, 715 1432" fill="none" stroke="#334155" stroke-width="3" stroke-linecap="round" opacity="0.9"/>
<path d="M 761 1475 C 738 1475, 738 1475, 715 1475" fill="none" stroke="#334155" stroke-width="3" stroke-linecap="round" opacity="0.9"/>
<path d="M 761 1475 C 738 1475, 738 1518, 715 1518" fill="none" stroke="#334155" stroke-width="3" stroke-linecap="round" opacity="0.9"/>
<path d="M 761 1475 C 738 1475, 738 1561, 715 1561" fill="none" stroke="#334155" stroke-width="3" stroke-linecap="round" opacity="0.9"/>
<path d="M 761 1475 C 738 1475, 738 1604, 715 1604" fill="none" stroke="#334155" stroke-width="3" stroke-linecap="round" opacity="0.9"/>
<rect x="1790" y="188" width="400" height="54" rx="27" fill="#6366F1" stroke="#6366F1" stroke-width="2"/><text x="1990" y="222" text-anchor="middle" font-family="DejaVu Sans" font-size="26" font-weight="bold" fill="#FFFFFF">DESKTOP &amp; RUNTIME</text>
<rect x="2236" y="69" width="428" height="34" rx="17" fill="#FFFFFF" stroke="#6366F1" stroke-width="2"/><text x="2450" y="93" text-anchor="middle" font-family="DejaVu Sans" font-size="19" fill="#0F172A">Electron 40 — main.cjs 346 l. · CDP :8315</text>
<rect x="2236" y="112" width="487" height="34" rx="17" fill="#FFFFFF" stroke="#6366F1" stroke-width="2"/><text x="2480" y="136" text-anchor="middle" font-family="DejaVu Sans" font-size="19" fill="#0F172A">safeStorage OS — DPAPI / Trousseau / libsecret</text>
<rect x="2236" y="155" width="448" height="34" rx="17" fill="#FFFFFF" stroke="#6366F1" stroke-width="2"/><text x="2460" y="179" text-anchor="middle" font-family="DejaVu Sans" font-size="19" fill="#0F172A">Auto-updater multi-plateforme (API GitHub)</text>
<rect x="2236" y="198" width="417" height="34" rx="17" fill="#FFFFFF" stroke="#6366F1" stroke-width="2"/><text x="2444" y="222" text-anchor="middle" font-family="DejaVu Sans" font-size="19" fill="#0F172A">React 19 + Vite 7 — renderer dev :5173</text>
<rect x="2236" y="241" width="379" height="34" rx="17" fill="#FFFFFF" stroke="#6366F1" stroke-width="2"/><text x="2426" y="265" text-anchor="middle" font-family="DejaVu Sans" font-size="19" fill="#0F172A">Zustand 5 + persistance IndexedDB</text>
<rect x="2236" y="284" width="470" height="34" rx="17" fill="#FFFFFF" stroke="#6366F1" stroke-width="2"/><text x="2471" y="308" text-anchor="middle" font-family="DejaVu Sans" font-size="19" fill="#0F172A">i18n fr/en/es/ar — 1186 clés ×4, parité testée</text>
<rect x="2236" y="327" width="417" height="34" rx="17" fill="#FFFFFF" stroke="#6366F1" stroke-width="2"/><text x="2444" y="351" text-anchor="middle" font-family="DejaVu Sans" font-size="19" fill="#0F172A">Tailwind 3 · Lucide · thème clair/sombre</text>
<rect x="1790" y="503" width="371" height="54" rx="27" fill="#0EA5E9" stroke="#0EA5E9" stroke-width="2"/><text x="1976" y="537" text-anchor="middle" font-family="DejaVu Sans" font-size="26" font-weight="bold" fill="#FFFFFF">BACKEND EXPRESS</text>
<rect x="2207" y="406" width="455" height="34" rx="17" fill="#FFFFFF" stroke="#0EA5E9" stroke-width="2"/><text x="2434" y="430" text-anchor="middle" font-family="DejaVu Sans" font-size="19" fill="#0F172A">127.0.0.1:3000 — boucle locale uniquement</text>
<rect x="2207" y="449" width="426" height="34" rx="17" fill="#FFFFFF" stroke="#0EA5E9" stroke-width="2"/><text x="2420" y="473" text-anchor="middle" font-family="DejaVu Sans" font-size="19" fill="#0F172A">Token Bearer 256 bits — temps constant</text>
<rect x="2207" y="492" width="451" height="34" rx="17" fill="#FFFFFF" stroke="#0EA5E9" stroke-width="2"/><text x="2432" y="516" text-anchor="middle" font-family="DejaVu Sans" font-size="19" fill="#0F172A">Rate limit : 2000/15 min + heavy 30/15 min</text>
<rect x="2207" y="535" width="385" height="34" rx="17" fill="#FFFFFF" stroke="#0EA5E9" stroke-width="2"/><text x="2400" y="559" text-anchor="middle" font-family="DejaVu Sans" font-size="19" fill="#0F172A">SQLite — 7 migrations idempotentes</text>
<rect x="2207" y="578" width="422" height="34" rx="17" fill="#FFFFFF" stroke="#0EA5E9" stroke-width="2"/><text x="2418" y="602" text-anchor="middle" font-family="DejaVu Sans" font-size="19" fill="#0F172A">Redis — cache optionnel, repli silencieux</text>
<rect x="2207" y="621" width="394" height="34" rx="17" fill="#FFFFFF" stroke="#0EA5E9" stroke-width="2"/><text x="2404" y="645" text-anchor="middle" font-family="DejaVu Sans" font-size="19" fill="#0F172A">14 routeurs fins → services (13 993 l.)</text>
<rect x="1790" y="818" width="400" height="54" rx="27" fill="#8B5CF6" stroke="#8B5CF6" stroke-width="2"/><text x="1990" y="852" text-anchor="middle" font-family="DejaVu Sans" font-size="26" font-weight="bold" fill="#FFFFFF">MOTEUR IA MULTI-LLM</text>
<rect x="2236" y="699" width="419" height="34" rx="17" fill="#FFFFFF" stroke="#8B5CF6" stroke-width="2"/><text x="2446" y="723" text-anchor="middle" font-family="DejaVu Sans" font-size="19" fill="#0F172A">27 personas spécialisés + orchestrateur</text>
<rect x="2236" y="742" width="392" height="34" rx="17" fill="#FFFFFF" stroke="#8B5CF6" stroke-width="2"/><text x="2432" y="766" text-anchor="middle" font-family="DejaVu Sans" font-size="19" fill="#0F172A">Google Gemini 2.5 Flash / Pro (vision)</text>
<rect x="2236" y="785" width="499" height="34" rx="17" fill="#FFFFFF" stroke="#8B5CF6" stroke-width="2"/><text x="2486" y="809" text-anchor="middle" font-family="DejaVu Sans" font-size="19" fill="#0F172A">NVIDIA NIM 56 modèles · OpenRouter · Together</text>
<rect x="2236" y="828" width="430" height="34" rx="17" fill="#FFFFFF" stroke="#8B5CF6" stroke-width="2"/><text x="2451" y="852" text-anchor="middle" font-family="DejaVu Sans" font-size="19" fill="#0F172A">Ollama — modèles locaux, confidentialité</text>
<rect x="2236" y="871" width="424" height="34" rx="17" fill="#FFFFFF" stroke="#8B5CF6" stroke-width="2"/><text x="2448" y="895" text-anchor="middle" font-family="DejaVu Sans" font-size="19" fill="#0F172A">Routeur : cascade API → CLI → OR → MCP</text>
<rect x="2236" y="914" width="320" height="34" rx="17" fill="#FFFFFF" stroke="#8B5CF6" stroke-width="2"/><text x="2396" y="938" text-anchor="middle" font-family="DejaVu Sans" font-size="19" fill="#0F172A">8 canaux — repli désactivable</text>
<rect x="2236" y="957" width="336" height="34" rx="17" fill="#FFFFFF" stroke="#8B5CF6" stroke-width="2"/><text x="2404" y="981" text-anchor="middle" font-family="DejaVu Sans" font-size="19" fill="#0F172A">Stratégies : auto / api / cli / mcp</text>
<rect x="1790" y="1133" width="384" height="54" rx="27" fill="#EC4899" stroke="#EC4899" stroke-width="2"/><text x="1982" y="1167" text-anchor="middle" font-family="DejaVu Sans" font-size="26" font-weight="bold" fill="#FFFFFF">CLI &amp; SERVEUR MCP</text>
<rect x="2220" y="1036" width="431" height="34" rx="17" fill="#FFFFFF" stroke="#EC4899" stroke-width="2"/><text x="2436" y="1060" text-anchor="middle" font-family="DejaVu Sans" font-size="19" fill="#0F172A">bin/wacopilote.cjs — 1 058 l. · 14 groupes</text>
<rect x="2220" y="1079" width="431" height="34" rx="17" fill="#FFFFFF" stroke="#EC4899" stroke-width="2"/><text x="2436" y="1103" text-anchor="middle" font-family="DejaVu Sans" font-size="19" fill="#0F172A">run --agent · pipeline · documents · photo</text>
<rect x="2220" y="1122" width="417" height="34" rx="17" fill="#FFFFFF" stroke="#EC4899" stroke-width="2"/><text x="2428" y="1146" text-anchor="middle" font-family="DejaVu Sans" font-size="19" fill="#0F172A">quotes · contacts · segments · instances</text>
<rect x="2220" y="1165" width="403" height="34" rx="17" fill="#FFFFFF" stroke="#EC4899" stroke-width="2"/><text x="2422" y="1189" text-anchor="middle" font-family="DejaVu Sans" font-size="19" fill="#0F172A">Serveur MCP : 40 outils JSON-RPC stdio</text>
<rect x="2220" y="1208" width="377" height="34" rx="17" fill="#FFFFFF" stroke="#EC4899" stroke-width="2"/><text x="2408" y="1232" text-anchor="middle" font-family="DejaVu Sans" font-size="19" fill="#0F172A">JSON garanti (drain stdout — fix N1)</text>
<rect x="2220" y="1251" width="416" height="34" rx="17" fill="#FFFFFF" stroke="#EC4899" stroke-width="2"/><text x="2428" y="1275" text-anchor="middle" font-family="DejaVu Sans" font-size="19" fill="#0F172A">Bridge externe : liste blanche + timeout</text>
<rect x="1790" y="1448" width="231" height="54" rx="27" fill="#EF4444" stroke="#EF4444" stroke-width="2"/><text x="1906" y="1482" text-anchor="middle" font-family="DejaVu Sans" font-size="26" font-weight="bold" fill="#FFFFFF">SÉCURITÉ</text>
<rect x="2067" y="1329" width="422" height="34" rx="17" fill="#FFFFFF" stroke="#EF4444" stroke-width="2"/><text x="2278" y="1353" text-anchor="middle" font-family="DejaVu Sans" font-size="19" fill="#0F172A">AES-256-GCM au repos · clé safeStorage</text>
<rect x="2067" y="1372" width="389" height="34" rx="17" fill="#FFFFFF" stroke="#EF4444" stroke-width="2"/><text x="2262" y="1396" text-anchor="middle" font-family="DejaVu Sans" font-size="19" fill="#0F172A">DOMPurify : chat · éditeur · fiches WP</text>
<rect x="2067" y="1415" width="368" height="34" rx="17" fill="#FFFFFF" stroke="#EF4444" stroke-width="2"/><text x="2251" y="1439" text-anchor="middle" font-family="DejaVu Sans" font-size="19" fill="#0F172A">Journalisation expurgée par défaut</text>
<rect x="2067" y="1458" width="372" height="34" rx="17" fill="#FFFFFF" stroke="#EF4444" stroke-width="2"/><text x="2253" y="1482" text-anchor="middle" font-family="DejaVu Sans" font-size="19" fill="#0F172A">CORS 5 origins locales + Origin null</text>
<rect x="2067" y="1501" width="401" height="34" rx="17" fill="#FFFFFF" stroke="#EF4444" stroke-width="2"/><text x="2268" y="1525" text-anchor="middle" font-family="DejaVu Sans" font-size="19" fill="#0F172A">contextIsolation ✓ · nodeIntegration ✗</text>
<rect x="2067" y="1544" width="376" height="34" rx="17" fill="#FFFFFF" stroke="#EF4444" stroke-width="2"/><text x="2255" y="1568" text-anchor="middle" font-family="DejaVu Sans" font-size="19" fill="#0F172A">SQL 100 % paramétré · CLI assainis</text>
<rect x="2067" y="1587" width="347" height="34" rx="17" fill="#FFFFFF" stroke="#EF4444" stroke-width="2"/><text x="2240" y="1611" text-anchor="middle" font-family="DejaVu Sans" font-size="19" fill="#0F172A">0 secret en dur · clés gitignorées</text>
<rect x="710" y="188" width="400" height="54" rx="27" fill="#22C55E" stroke="#22C55E" stroke-width="2"/><text x="910" y="222" text-anchor="middle" font-family="DejaVu Sans" font-size="26" font-weight="bold" fill="#FFFFFF">AUTOMATISATION WA</text>
<rect x="220" y="91" width="444" height="34" rx="17" fill="#FFFFFF" stroke="#22C55E" stroke-width="2"/><text x="442" y="115" text-anchor="middle" font-family="DejaVu Sans" font-size="19" fill="#0F172A">orderListener.js — Playwright / CDP (487 l.)</text>
<rect x="209" y="134" width="455" height="34" rx="17" fill="#FFFFFF" stroke="#22C55E" stroke-width="2"/><text x="436" y="158" text-anchor="middle" font-family="DejaVu Sans" font-size="19" fill="#0F172A">Order Radar — détection d'intention d'achat</text>
<rect x="332" y="177" width="332" height="34" rx="17" fill="#FFFFFF" stroke="#22C55E" stroke-width="2"/><text x="498" y="201" text-anchor="middle" font-family="DejaVu Sans" font-size="19" fill="#0F172A">Multi-instances — miroir SQLite</text>
<rect x="331" y="220" width="333" height="34" rx="17" fill="#FFFFFF" stroke="#22C55E" stroke-width="2"/><text x="498" y="244" text-anchor="middle" font-family="DejaVu Sans" font-size="19" fill="#0F172A">Garde compte Business · E.164</text>
<rect x="403" y="263" width="261" height="34" rx="17" fill="#FFFFFF" stroke="#22C55E" stroke-width="2"/><text x="534" y="287" text-anchor="middle" font-family="DejaVu Sans" font-size="19" fill="#0F172A">Flux SSE heartbeat 15 s</text>
<rect x="274" y="306" width="390" height="34" rx="17" fill="#FFFFFF" stroke="#22C55E" stroke-width="2"/><text x="469" y="330" text-anchor="middle" font-family="DejaVu Sans" font-size="19" fill="#0F172A">Copilote — suggestions contextuelles</text>
<rect x="710" y="503" width="400" height="54" rx="27" fill="#F59E0B" stroke="#F59E0B" stroke-width="2"/><text x="910" y="537" text-anchor="middle" font-family="DejaVu Sans" font-size="26" font-weight="bold" fill="#FFFFFF">PROSPECTION &amp; CRM</text>
<rect x="249" y="406" width="415" height="34" rx="17" fill="#FFFFFF" stroke="#F59E0B" stroke-width="2"/><text x="456" y="430" text-anchor="middle" font-family="DejaVu Sans" font-size="19" fill="#0F172A">Scrapers : Maps · Annuaire CI · GoAfrica</text>
<rect x="318" y="449" width="346" height="34" rx="17" fill="#FFFFFF" stroke="#F59E0B" stroke-width="2"/><text x="491" y="473" text-anchor="middle" font-family="DejaVu Sans" font-size="19" fill="#0F172A">Pipeline : prospection → contacts</text>
<rect x="251" y="492" width="413" height="34" rx="17" fill="#FFFFFF" stroke="#F59E0B" stroke-width="2"/><text x="458" y="516" text-anchor="middle" font-family="DejaVu Sans" font-size="19" fill="#0F172A">…→ messages → Kanban validé humain</text>
<rect x="270" y="535" width="394" height="34" rx="17" fill="#FFFFFF" stroke="#F59E0B" stroke-width="2"/><text x="467" y="559" text-anchor="middle" font-family="DejaVu Sans" font-size="19" fill="#0F172A">Segments CRM idempotents (1–1000)</text>
<rect x="320" y="578" width="344" height="34" rx="17" fill="#FFFFFF" stroke="#F59E0B" stroke-width="2"/><text x="492" y="602" text-anchor="middle" font-family="DejaVu Sans" font-size="19" fill="#0F172A">Réaffectation auto des doublons</text>
<rect x="326" y="621" width="338" height="34" rx="17" fill="#FFFFFF" stroke="#F59E0B" stroke-width="2"/><text x="495" y="645" text-anchor="middle" font-family="DejaVu Sans" font-size="19" fill="#0F172A">Brouillons jamais envoyés seuls</text>
<rect x="744" y="818" width="366" height="54" rx="27" fill="#14B8A6" stroke="#14B8A6" stroke-width="2"/><text x="927" y="852" text-anchor="middle" font-family="DejaVu Sans" font-size="26" font-weight="bold" fill="#FFFFFF">PONT WORDPRESS</text>
<rect x="316" y="721" width="382" height="34" rx="17" fill="#FFFFFF" stroke="#14B8A6" stroke-width="2"/><text x="507" y="745" text-anchor="middle" font-family="DejaVu Sans" font-size="19" fill="#0F172A">Plugin bridge v2.0.0 — 1 197 l. (GPL)</text>
<rect x="350" y="764" width="348" height="34" rx="17" fill="#FFFFFF" stroke="#14B8A6" stroke-width="2"/><text x="524" y="788" text-anchor="middle" font-family="DejaVu Sans" font-size="19" fill="#0F172A">Application Passwords (WP 5.6+)</text>
<rect x="385" y="807" width="313" height="34" rx="17" fill="#FFFFFF" stroke="#14B8A6" stroke-width="2"/><text x="542" y="831" text-anchor="middle" font-family="DejaVu Sans" font-size="19" fill="#0F172A">HITL strict : CPT wa_ai_action</text>
<rect x="267" y="850" width="431" height="34" rx="17" fill="#FFFFFF" stroke="#14B8A6" stroke-width="2"/><text x="482" y="874" text-anchor="middle" font-family="DejaVu Sans" font-size="19" fill="#0F172A">File d'approbation — zéro écriture directe</text>
<rect x="206" y="893" width="492" height="34" rx="17" fill="#FFFFFF" stroke="#14B8A6" stroke-width="2"/><text x="452" y="917" text-anchor="middle" font-family="DejaVu Sans" font-size="19" fill="#0F172A">WooCommerce : produits · stocks · commandes</text>
<rect x="381" y="936" width="317" height="34" rx="17" fill="#FFFFFF" stroke="#14B8A6" stroke-width="2"/><text x="540" y="960" text-anchor="middle" font-family="DejaVu Sans" font-size="19" fill="#0F172A">Table d'audit wacopilote_logs</text>
<rect x="716" y="1133" width="394" height="54" rx="27" fill="#F97316" stroke="#F97316" stroke-width="2"/><text x="913" y="1167" text-anchor="middle" font-family="DejaVu Sans" font-size="26" font-weight="bold" fill="#FFFFFF">STUDIO &amp; FACTURES</text>
<rect x="258" y="1057" width="412" height="34" rx="17" fill="#FFFFFF" stroke="#F97316" stroke-width="2"/><text x="464" y="1081" text-anchor="middle" font-family="DejaVu Sans" font-size="19" fill="#0F172A">Fonds IA + mannequins / poses virtuels</text>
<rect x="304" y="1100" width="366" height="34" rx="17" fill="#FFFFFF" stroke="#F97316" stroke-width="2"/><text x="487" y="1124" text-anchor="middle" font-family="DejaVu Sans" font-size="19" fill="#0F172A">Catalogue → publication WhatsApp</text>
<rect x="233" y="1143" width="437" height="34" rx="17" fill="#FFFFFF" stroke="#F97316" stroke-width="2"/><text x="452" y="1167" text-anchor="middle" font-family="DejaVu Sans" font-size="19" fill="#0F172A">Devis / factures PDF (Chromium headless)</text>
<rect x="314" y="1186" width="356" height="34" rx="17" fill="#FFFFFF" stroke="#F97316" stroke-width="2"/><text x="492" y="1210" text-anchor="middle" font-family="DejaVu Sans" font-size="19" fill="#0F172A">Éditeur — export printToPDF (IPC)</text>
<rect x="303" y="1229" width="367" height="34" rx="17" fill="#FFFFFF" stroke="#F97316" stroke-width="2"/><text x="486" y="1253" text-anchor="middle" font-family="DejaVu Sans" font-size="19" fill="#0F172A">− 1 Mo de bundle (html2pdf retiré)</text>
<rect x="761" y="1448" width="349" height="54" rx="27" fill="#334155" stroke="#334155" stroke-width="2"/><text x="936" y="1482" text-anchor="middle" font-family="DejaVu Sans" font-size="26" font-weight="bold" fill="#FFFFFF">QUALITÉ — AUDIT</text>
<rect x="280" y="1329" width="435" height="34" rx="17" fill="#FFFFFF" stroke="#334155" stroke-width="2"/><text x="498" y="1353" text-anchor="middle" font-family="DejaVu Sans" font-size="19" fill="#0F172A">251 tests : 248 ✓ · 0 échec · 3 skips gated</text>
<rect x="403" y="1372" width="312" height="34" rx="17" fill="#FFFFFF" stroke="#334155" stroke-width="2"/><text x="559" y="1396" text-anchor="middle" font-family="DejaVu Sans" font-size="19" fill="#0F172A">3 runs complets — zéro flaky</text>
<rect x="335" y="1415" width="380" height="34" rx="17" fill="#FFFFFF" stroke="#334155" stroke-width="2"/><text x="525" y="1439" text-anchor="middle" font-family="DejaVu Sans" font-size="19" fill="#0F172A">ESLint 0/0 · zéro TODO · build 10,2 s</text>
<rect x="411" y="1458" width="304" height="34" rx="17" fill="#FFFFFF" stroke="#334155" stroke-width="2"/><text x="563" y="1482" text-anchor="middle" font-family="DejaVu Sans" font-size="19" fill="#0F172A">CI verte : lint + tests + build</text>
<rect x="232" y="1501" width="483" height="34" rx="17" fill="#FFFFFF" stroke="#334155" stroke-width="2"/><text x="474" y="1525" text-anchor="middle" font-family="DejaVu Sans" font-size="19" fill="#0F172A">Couverture 12,4 % (db 81 % · personas 100 %)</text>
<rect x="283" y="1544" width="432" height="34" rx="17" fill="#FFFFFF" stroke="#334155" stroke-width="2"/><text x="499" y="1568" text-anchor="middle" font-family="DejaVu Sans" font-size="19" fill="#0F172A">⚠ 4 vuln. high — Electron à upgrader (P0)</text>
<rect x="268" y="1587" width="447" height="34" rx="17" fill="#FFFFFF" stroke="#334155" stroke-width="2"/><text x="492" y="1611" text-anchor="middle" font-family="DejaVu Sans" font-size="19" fill="#0F172A">CI cible (coverage + E2E) prête à fusionner</text>
<rect x="1220.0" y="775.0" width="460" height="200" rx="26" fill="#0F172A" stroke="#10B981" stroke-width="5"/>
<text x="1450" y="833" text-anchor="middle" font-family="DejaVu Sans" font-weight="bold" font-size="44" fill="#FFFFFF">WACOPILOTE v1.48.1</text>
<text x="1450" y="877" text-anchor="middle" font-family="DejaVu Sans" font-size="22" fill="#A7F3D0">lunar-nova · AGPL-3.0 · open source</text>
<text x="1450" y="917" text-anchor="middle" font-family="DejaVu Sans" font-size="22" fill="#94A3B8">Audit intégral — 31 août 2026</text>
<rect x="60" y="1774" width="2780" height="58" rx="14" fill="#F1F5F9" stroke="#E2E8F0"/>
<text x="1450" y="1810" text-anchor="middle" font-family="DejaVu Sans" font-size="21" fill="#334155">Verdict révision 3 : CI 100 % verte · 8/8 constats antérieurs résolus avec preuves · chantiers : Electron ≥ 41.10.3 (P0) · fusion CI cible (P0) · couverture (P2)   —   Sources : commit 4309745 · Support.jsx (47 versions) · memory-bank · audits 2026-08-26/29</text>
</svg>